<svg width="22" height="22" viewBox="0 0 22 22" xmlns="http://www.w3.org/2000/svg">
    <path d="M19.25 8.9375C19.0677 8.9375 18.8928 9.00993 18.7639 9.13886C18.6349 9.2678 18.5625 9.44266 18.5625 9.625V15.125C18.5625 15.3073 18.4901 15.4822 18.3611 15.6111C18.2322 15.7401 18.0573 15.8125 17.875 15.8125H4.125C3.94266 15.8125 3.7678 15.7401 3.63886 15.6111C3.50993 15.4822 3.4375 15.3073 3.4375 15.125V9.625C3.4375 9.44266 3.36507 9.2678 3.23614 9.13886C3.1072 9.00993 2.93234 8.9375 2.75 8.9375C2.56766 8.9375 2.3928 9.00993 2.26386 9.13886C2.13493 9.2678 2.0625 9.44266 2.0625 9.625V15.125C2.06265 15.672 2.27999 16.1965 2.66675 16.5832C3.05352 16.97 3.57804 17.1874 4.125 17.1875H17.875C18.422 17.1874 18.9465 16.97 19.3332 16.5832C19.72 16.1965 19.9374 15.672 19.9375 15.125V9.625C19.9375 9.44266 19.8651 9.2678 19.7361 9.13886C19.6072 9.00993 19.4323 8.9375 19.25 8.9375Z" />
    <path d="M10.5874 12.925C10.7064 13.0143 10.8512 13.0625 10.9999 13.0625C11.1487 13.0625 11.2934 13.0143 11.4124 12.925L19.5305 6.8365C19.6577 6.74118 19.7479 6.60468 19.7858 6.45028C19.8236 6.29588 19.8068 6.13313 19.738 5.98978C19.5704 5.63762 19.3064 5.34016 18.9767 5.13181C18.6469 4.92346 18.265 4.81276 17.8749 4.8125H4.12493C3.7349 4.81276 3.35291 4.92346 3.02319 5.13181C2.69346 5.34016 2.42948 5.63762 2.26181 5.98978C2.19311 6.13311 2.17625 6.29582 2.21408 6.45019C2.25192 6.60456 2.34211 6.74104 2.46929 6.83636L10.5874 12.925ZM4.12493 6.1875H17.8749C17.9401 6.18739 18.0049 6.19666 18.0674 6.215L10.9999 11.5156L3.93243 6.21534C3.99493 6.19688 4.05976 6.18751 4.12493 6.1875Z" />
</svg>