<svg width="53" height="51" viewBox="0 0 53 51" xmlns="http://www.w3.org/2000/svg">
    <path d="M46.3167 33.6552H42.6925V30.031C42.6925 29.2319 42.0425 28.5819 41.2434 28.5819H37.5157C36.7166 28.5819 36.0666 29.2319 36.0666 30.031V33.6552H32.4425C31.6434 33.6552 30.9933 34.3052 30.9933 35.1043V38.8319C30.9933 39.631 31.6434 40.2811 32.4425 40.2811H36.0666V43.9052C36.0666 44.7043 36.7166 45.3543 37.5157 45.3543H41.2434C42.0425 45.3543 42.6925 44.7043 42.6925 43.9052V40.2811H46.3167C47.1157 40.2811 47.7658 39.631 47.7658 38.8319V35.1043C47.7658 34.3052 47.1157 33.6552 46.3167 33.6552ZM46.2131 38.7283H42.589C41.7899 38.7283 41.1399 39.3784 41.1399 40.1775V43.8016H37.6192V40.1775C37.6192 39.3784 36.9692 38.7283 36.1701 38.7283H32.546V35.2077H36.1701C36.9692 35.2077 37.6192 34.5577 37.6192 33.7586V30.1344H41.1399V33.7586C41.1399 34.5577 41.7899 35.2077 42.589 35.2077H46.2131V38.7283ZM39.6249 10.3903C38.2017 10.3903 37.0438 11.5482 37.0438 12.9715C37.0438 14.3946 38.2017 15.5526 39.6249 15.5526C41.0481 15.5526 42.206 14.3946 42.206 12.9715C42.2059 11.5482 41.0481 10.3903 39.6249 10.3903ZM39.6249 13.9998C39.0578 13.9998 38.5965 13.5385 38.5965 12.9714C38.5965 12.4041 39.0578 11.9428 39.6249 11.9428C40.1921 11.9428 40.6534 12.4041 40.6534 12.9714C40.6533 13.5385 40.1919 13.9998 39.6249 13.9998ZM49.2076 27.5479C50.8309 26.4695 51.6125 24.368 50.8179 22.3902L50.7436 22.2057C50.3231 21.1589 50.6003 19.9444 51.4333 19.184L51.5805 19.0496C54.031 16.8123 53.109 12.7566 49.9266 11.803C49.8645 11.7706 48.6625 11.5707 48.0617 10.3113C47.8771 9.92418 47.4135 9.76022 47.0268 9.94478C46.6398 10.1293 46.4757 10.5927 46.6603 10.9797C47.1786 12.0663 48.1371 12.8876 49.2899 13.2331L49.4809 13.2904C51.5041 13.8965 52.0954 16.4772 50.5338 17.9029L50.3866 18.0373C49.0776 19.2323 48.6422 21.1402 49.303 22.7848L49.3773 22.9694C49.9411 24.3728 49.2557 25.8541 48.0164 26.4441C44.2263 23.3281 39.1687 22.5588 34.7557 24.1564C35.3866 22.1823 35.7068 20.1937 35.7068 18.2235C35.7068 14.6458 34.6652 11.2481 32.7229 8.35261C33.3578 6.83548 35.2971 6.14508 36.7811 7.17458L36.9448 7.28802C38.401 8.29827 40.3581 8.29837 41.8141 7.28813L41.9778 7.17458C43.3321 6.23513 44.884 6.74947 45.6569 7.71013C45.9256 8.04426 46.4143 8.09705 46.7484 7.82844C47.0824 7.55973 47.1354 7.07107 46.8667 6.73695C45.4646 4.99386 42.9283 4.62578 41.093 5.89873L40.9293 6.01238C40.0024 6.65528 38.7567 6.65538 37.8298 6.01228L37.6661 5.89873C35.6374 4.49153 33.0038 5.11497 31.7109 6.98775C28.1726 2.66585 22.839 0.126577 16.94 0.437621C7.32001 0.943156 -0.0825135 8.89965 0.0872406 18.5508C0.184953 24.1059 2.77443 29.6408 7.78352 35.0148C6.02563 36.0633 4.15678 37.0796 2.19467 38.0503C0.285252 38.9948 -0.523667 41.2525 0.353051 43.1903L2.28742 47.4661C3.19685 49.4768 5.59452 50.3579 7.6031 49.3706C7.93516 49.2072 8.26514 49.0428 8.59295 48.877C8.97562 48.6837 9.12913 48.2167 8.93567 47.8341C8.74221 47.4514 8.27508 47.2978 7.89272 47.4915C7.56987 47.6546 7.24496 47.8167 6.91808 47.9773C5.71169 48.5704 4.25584 48.051 3.70197 46.8262L1.7676 42.5505C1.23774 41.379 1.72764 40.0135 2.88311 39.442C9.02945 36.4012 14.3022 32.9123 18.1313 29.3523C21.6817 26.051 22.8827 23.6834 23.1143 23.3541C24.0787 21.9799 25.5133 18.8044 26.3893 15.3939C27.3225 11.7601 27.7934 7.18058 25.7791 4.00142C30.7735 6.78922 34.1543 12.0986 34.1543 18.2236C34.1543 20.4871 33.6922 22.7841 32.7834 25.0554C29.157 27.0713 26.5421 30.6945 25.9083 34.9561C21.6483 39.2458 16.3436 42.8765 11.1204 45.7803C10.7457 45.9885 10.6109 46.4612 10.8192 46.836C11.0275 47.2107 11.5002 47.3454 11.8749 47.1372C14.0061 45.9523 16.0148 44.7238 17.8971 43.4583C21.024 45.5611 24.4829 47.549 28.1883 49.3707C29.6329 50.0809 31.3746 49.8329 32.5635 48.7566C34.5695 49.9209 36.898 50.5886 39.3796 50.5886C46.89 50.5886 53 44.4785 53 36.9682C53 33.3164 51.5552 29.996 49.2076 27.5479ZM9.13596 34.188C4.25377 29.0293 1.73189 23.7617 1.63977 18.5235C1.52943 12.2588 4.91416 6.77731 10.0357 3.96602C7.99488 7.14663 8.46491 11.7442 9.40239 15.3937C10.2783 18.8041 11.7128 21.9796 12.6772 23.3539C12.8662 23.6231 13.9352 25.6762 16.7697 28.4945C14.6369 30.4356 12.0596 32.3551 9.13596 34.188ZM17.8962 27.4256C15.5579 25.1096 12.6279 21.5005 12.6279 18.2234C12.6279 15.3187 14.991 12.9556 17.8958 12.9556C20.8004 12.9556 23.1635 15.3187 23.1635 18.2234C23.1634 21.5034 20.2346 25.1108 17.8962 27.4256ZM24.479 16.4441C23.6942 13.5437 21.0409 11.403 17.8957 11.403C14.7505 11.403 12.0971 13.5435 11.3122 16.4439C10.288 13.1179 9.45839 8.53623 10.9982 5.4139C12.3816 2.60851 15.3824 1.8473 18.5208 1.97814C21.6239 2.11032 23.7342 3.2663 24.7933 5.4139C26.3327 8.53582 25.5037 13.117 24.479 16.4441ZM28.8732 47.9772C25.4313 46.2851 22.2084 44.4485 19.2746 42.5103C21.5581 40.8981 23.7477 39.1516 25.7631 37.262C25.8551 41.5849 27.9707 45.4182 31.1989 47.851C30.5153 48.2834 29.6327 48.3507 28.8732 47.9772ZM39.3796 49.0358C32.7255 49.0358 27.312 43.6222 27.312 36.9681C27.312 30.3139 32.7255 24.9003 39.3796 24.9003C46.0338 24.9003 51.4474 30.3139 51.4474 36.9681C51.4474 43.6222 46.0338 49.0358 39.3796 49.0358ZM43.8828 21.5758C45.3059 21.5758 46.4638 20.4179 46.4638 18.9947C46.4638 17.5715 45.306 16.4137 43.8828 16.4137C42.4595 16.4137 41.3016 17.5715 41.3016 18.9947C41.3016 20.418 42.4595 21.5758 43.8828 21.5758ZM43.8828 17.9663C44.4499 17.9663 44.9112 18.4276 44.9112 18.9947C44.9112 19.5619 44.4499 20.0232 43.8828 20.0232C43.3156 20.0232 42.8542 19.5619 42.8542 18.9947C42.8542 18.4276 43.3155 17.9663 43.8828 17.9663Z" />
</svg>