<svg width="53" height="53" viewBox="0 0 53 53" xmlns="http://www.w3.org/2000/svg">
    <g clip-path="url(#clip0_872_5726)">
        <path d="M41.8682 52.1746L41.6215 48.2697C41.5265 46.7691 40.9876 45.3504 40.0631 44.1668C39.799 43.8288 39.3112 43.7687 38.9733 44.033C38.6354 44.2969 38.5755 44.7848 38.8394 45.1227C39.5705 46.0585 39.9966 47.1808 40.0719 48.3676L40.2662 51.4471H12.7337L12.928 48.368C13.0277 46.7942 13.7357 45.3556 14.9212 44.317C15.6242 43.7015 16.4753 43.258 17.3828 43.0341L21.5757 41.9978C22.1333 41.8599 22.5227 41.363 22.5227 40.7897V37.7979C23.8675 38.3374 25.2458 38.6293 26.5 38.6293C27.7373 38.6293 29.099 38.3442 30.4296 37.8169V40.7773C30.4296 41.3514 30.8186 41.8486 31.376 41.9866L35.6181 43.0343C35.9783 43.1229 36.3333 43.2474 36.6735 43.4044C36.7788 43.4532 36.8895 43.4762 36.9985 43.4762C37.2919 43.4762 37.5727 43.309 37.7039 43.0251C37.8836 42.6358 37.7138 42.1745 37.3245 41.9948C36.8945 41.7962 36.445 41.6386 35.9895 41.5267L31.9825 40.5369V37.0813C34.2806 35.8058 36.1796 33.8841 37.3609 31.6259C37.5597 31.246 37.4128 30.7769 37.0329 30.5781C36.6528 30.3791 36.1838 30.5262 35.9851 30.9062C34.88 33.0188 33.0575 34.801 30.8534 35.9244C29.3963 36.6674 27.8503 37.0766 26.5001 37.0766C25.1333 37.0766 23.5716 36.6592 22.1016 35.9009C19.9677 34.8032 18.1864 33.0766 17.0859 31.039C16.8821 30.6617 16.4112 30.5211 16.0338 30.7249C15.6565 30.9287 15.5159 31.3997 15.7198 31.7769C16.8943 33.9514 18.748 35.8106 20.9702 37.0548V40.5482L17.0109 41.5266C15.8639 41.8094 14.7875 42.3703 13.8985 43.1489C12.3996 44.4619 11.5047 46.2805 11.3785 48.2699L11.1322 52.1748C11.1186 52.3887 11.1943 52.5989 11.341 52.7551C11.4876 52.9113 11.6925 53 11.907 53H41.0934C41.3077 53 41.5126 52.9114 41.6594 52.7551C41.8062 52.5986 41.8817 52.3886 41.8682 52.1746Z" />
        <path d="M49.3526 12.1614C48.9238 12.1614 48.5762 12.5089 48.5762 12.9378V28.8612C48.5762 34.3071 42.8144 37.0699 39.3798 38.2321C37.5538 38.8502 36.6213 38.522 36.4401 38.1505C36.3323 37.9295 36.4709 37.6344 36.7773 37.4328C38.0998 36.5633 43.4427 32.496 43.4427 29.936C43.4427 28.7798 43.3325 27.6702 43.2401 26.9431C43.1874 26.5285 42.9381 26.1595 42.5731 25.9559C42.2076 25.7517 41.7621 25.7337 41.381 25.9068L37.2355 27.7907C36.9379 27.926 36.5923 27.8521 36.3762 27.6068C36.2411 27.4536 36.1766 27.2572 36.1945 27.0539C36.2124 26.8505 36.3102 26.6684 36.4701 26.5411C37.2096 25.9518 37.8295 25.4859 38.3496 25.1156C38.3556 25.1112 38.362 25.1072 38.3678 25.1026C39.5995 24.2273 40.2612 23.8979 40.5844 23.7745C40.5997 23.7692 40.6149 23.7639 40.6298 23.7577C40.7785 23.7045 40.8421 23.7005 40.8508 23.7002H43.3932C43.8219 23.7002 44.1695 23.3527 44.1695 22.9238V13.3793C44.1695 12.9504 43.8219 12.6029 43.3932 12.6029C42.9644 12.6029 42.6168 12.9504 42.6168 13.3793V22.1473H41.3795C41.5924 21.2367 41.7794 20.0692 41.7256 18.9032C41.6497 17.2524 41.094 15.9996 40.1114 15.2478C40.0277 12.5054 39.3103 10.2792 37.9763 8.62574C37.0253 7.44701 35.7896 6.58587 34.3 6.05897C33.8182 3.56943 31.84 1.35502 29.2355 0.450506C26.9912 -0.328758 22.3707 -0.768078 16.6405 5.04721C16.3396 5.35258 16.3432 5.84407 16.6486 6.14499C16.954 6.44602 17.4456 6.44239 17.7465 6.13692C22.8775 0.929886 26.8278 1.25834 28.7258 1.91732C29.2668 2.1052 29.754 2.35395 30.1885 2.64452C29.6908 2.62868 29.1852 2.67143 28.6882 2.77577C27.0968 3.11054 25.5584 3.99425 23.9847 5.47763C23.6727 5.77172 23.6581 6.2631 23.9522 6.5752C24.1049 6.73721 24.3108 6.81898 24.5172 6.81898C24.7082 6.81898 24.8996 6.7489 25.0496 6.6076C26.4095 5.32588 27.7043 4.56949 29.0076 4.29528C30.1278 4.06009 31.2907 4.2341 32.1594 4.75871C32.5401 5.42753 32.7648 6.11642 32.8328 6.73482C32.8582 6.95945 32.8647 7.17963 32.8521 7.39008C32.8352 7.67795 32.7835 7.96997 32.6969 8.26571C32.4247 9.19611 31.8078 10.1647 30.8528 11.1648C30.0823 11.9717 29.1796 12.7094 28.2793 13.3615C28.2791 13.3617 28.2789 13.3619 28.2786 13.3621C26.4413 14.6943 24.0852 16.038 21.2754 17.3558C18.5676 18.6271 16.2122 20.9672 15.0349 23.4909C13.9513 22.7559 13.2736 22.4232 12.8359 22.2724C12.4222 18.4337 12.6635 13.1023 15.8202 8.47554C16.0618 8.12141 15.9706 7.63841 15.6165 7.3967C15.2622 7.15499 14.7792 7.24629 14.5376 7.60052C11.1972 12.4964 10.8639 18.0654 11.262 22.1472H10.3833V13.3792C10.3833 12.9503 10.0357 12.6028 9.60698 12.6028C9.17822 12.6028 8.83062 12.9503 8.83062 13.3792V22.9237C8.83062 23.3526 9.17822 23.7001 9.60698 23.7001H12.1486C12.177 23.7008 12.7598 23.7385 14.9163 25.3068C14.9245 25.313 14.9327 25.3191 14.9411 25.325C15.3981 25.6579 15.9235 26.0574 16.5303 26.5409C16.69 26.6682 16.788 26.8503 16.8059 27.0537C16.8238 27.257 16.7593 27.4533 16.6242 27.6066C16.408 27.8519 16.0625 27.9258 15.7649 27.7905L11.6193 25.9066C11.2382 25.7335 10.7926 25.7517 10.4271 25.9557C10.0621 26.1593 9.81277 26.5283 9.76019 26.9429C9.66775 27.67 9.55761 28.7796 9.55761 29.9358C9.55761 32.4958 14.9003 36.5631 16.223 37.4326C16.5294 37.6341 16.668 37.9293 16.5601 38.1503C16.3789 38.5216 15.4464 38.8498 13.6204 38.2319C10.1858 37.0697 4.42407 34.3069 4.42407 28.861V12.938C4.42407 12.5091 4.07646 12.1616 3.6477 12.1616C3.21894 12.1616 2.87134 12.5091 2.87134 12.938V28.8614C2.87134 31.6537 4.09913 34.1098 6.52088 36.1615C8.64501 37.9612 11.2834 39.0807 13.1227 39.7031C14.007 40.0024 14.7654 40.1288 15.4049 40.1288C16.7825 40.1287 17.609 39.542 17.9556 38.8318C18.4089 37.9027 18.0391 36.7688 17.0761 36.1356C16.1411 35.5208 14.6096 34.3192 13.2958 33.0212C11.6845 31.429 11.1104 30.3837 11.1104 29.9363C11.1104 29.0139 11.1865 28.1178 11.2629 27.4506L15.1226 29.2045C16.0463 29.6241 17.1181 29.395 17.7892 28.6336C18.2082 28.1583 18.4083 27.5489 18.3528 26.9177C18.2972 26.2866 17.9937 25.7216 17.4981 25.3267C17.0725 24.9876 16.6832 24.6868 16.323 24.4162C17.2932 22.1375 19.483 19.9133 21.9354 18.762C24.6669 17.4809 26.9921 16.1691 28.8546 14.8591C34.1158 16.7997 36.0046 20.7648 36.9944 24.1803C36.55 24.5075 36.056 24.8855 35.5022 25.3267C35.0066 25.7216 34.703 26.2866 34.6475 26.9178C34.5919 27.549 34.7921 28.1583 35.2111 28.6337C35.882 29.395 36.9537 29.6241 37.8777 29.2046L41.7371 27.4507C41.8135 28.1178 41.8896 29.0141 41.8896 29.9364C41.8896 30.3838 41.3155 31.4293 39.7043 33.0213C38.3906 34.3194 36.8591 35.5209 35.9239 36.1357C34.9609 36.7689 34.5912 37.9028 35.0445 38.8319C35.3911 39.5422 36.2174 40.129 37.5952 40.129C38.2347 40.129 38.9933 40.0025 39.8774 39.7033C41.7167 39.0809 44.3551 37.9613 46.4793 36.1617C48.901 34.1101 50.1288 31.6539 50.1288 28.8616V12.9381C50.1289 12.509 49.7813 12.1614 49.3526 12.1614ZM30.3019 13.7669C32.1728 12.2406 34.1057 10.1581 34.3783 7.76097C37.1662 9.025 38.1849 11.6425 38.4718 14.1037L38.1708 13.8917C37.8202 13.6448 37.3359 13.7288 37.089 14.0793C36.8421 14.43 36.926 14.9142 37.2766 15.1612L38.8957 16.3018C38.9045 16.308 38.9141 16.3122 38.923 16.318C38.9336 16.3248 38.9434 16.3327 38.9544 16.339C40.5441 17.2569 40.3616 20.1368 39.6926 22.4673C39.3474 22.6298 38.9044 22.8762 38.3346 23.2461C37.3138 19.9812 35.3083 15.9673 30.3019 13.7669Z" />
    </g>
    <defs>
        <clipPath id="clip0_872_5726">
            <rect width="53" height="53" />
        </clipPath>
    </defs>
</svg>