<svg width="53" height="41" viewBox="0 0 53 41" xmlns="http://www.w3.org/2000/svg">
    <path d="M52.1045 32.7143C51.9566 32.7265 37.1762 33.8947 28.2015 31.9237C27.0079 31.6609 26.2471 32.022 24.4065 32.8954C23.0671 33.5303 21.041 34.4898 17.6556 35.8104C10.0888 38.7607 6.01771 38.923 5.33865 37.7758C4.70154 36.6948 6.14358 31.9237 7.84621 28.1132C7.89137 28.0139 7.91644 27.9066 7.91998 27.7975C7.92353 27.6884 7.90547 27.5797 7.86686 27.4776C7.82825 27.3755 7.76984 27.2821 7.69499 27.2027C7.62015 27.1232 7.53034 27.0594 7.43073 27.0148C7.33112 26.9702 7.22367 26.9457 7.11457 26.9428C7.00547 26.9398 6.89687 26.9585 6.795 26.9977C6.69314 27.0369 6.60002 27.0958 6.52101 27.1711C6.442 27.2464 6.37865 27.3365 6.3346 27.4364C6.22419 27.6815 6.03979 28.1055 5.82117 28.6344C3.87562 27.2873 1.65625 25.2744 1.65625 24.0665C1.78323 23.521 3.68019 21.878 5.85208 20.394C5.88692 20.5022 5.91313 20.613 5.93048 20.7253C5.89011 21.0898 5.82593 21.4512 5.73835 21.8073C5.47338 22.6063 5.40409 23.4571 5.53629 24.2884C5.78804 25.047 6.57421 25.3142 7.14837 25.5107C7.23008 25.5383 7.33719 25.5748 7.4211 25.6057C7.64194 26.097 8.10348 26.9009 8.427 27.443C8.47779 27.6473 8.5871 28.0613 8.73837 28.4887C8.84845 28.8009 9.03107 29.0825 9.27121 29.3103C9.51135 29.5382 9.80215 29.7058 10.1197 29.7993C10.4338 29.8933 10.7658 29.9107 11.088 29.85C11.4101 29.7893 11.7131 29.6523 11.9714 29.4504C12.1922 29.277 12.4804 29.0385 12.7984 28.7625L12.2253 30.9167C12.1926 31.0393 12.1886 31.1678 12.2135 31.2922C12.2384 31.4167 12.2916 31.5337 12.369 31.6342C12.4464 31.7348 12.5459 31.8162 12.6598 31.8721C12.7737 31.9281 12.899 31.9571 13.0259 31.9568C13.109 31.9574 13.1918 31.9448 13.271 31.9193C15.323 31.2362 17.2789 30.2929 19.091 29.1125C23.1334 26.4382 23.7837 23.5917 23.8091 23.468C23.8561 23.2537 23.8161 23.0294 23.6977 22.8446C23.5794 22.6598 23.3925 22.5295 23.1781 22.4825C22.9638 22.4355 22.7395 22.4756 22.5547 22.594C22.3699 22.7123 22.2396 22.8992 22.1926 23.1136C22.05 23.5705 21.8437 24.005 21.5798 24.4043L18.2541 24.7146C18.1453 24.7196 18.0386 24.746 17.9401 24.7922C17.8415 24.8385 17.753 24.9037 17.6797 24.9841C17.5315 25.1466 17.4539 25.3612 17.4641 25.5808C17.4742 25.8005 17.5711 26.0071 17.7335 26.1553C17.896 26.3034 18.1106 26.381 18.3303 26.3709H18.4076L20.0914 26.2141C19.5014 26.7795 18.8605 27.2892 18.1768 27.7367C16.9309 28.5477 15.6115 29.2397 14.236 29.8037L15.0686 26.6778C16.1751 25.7346 17.1208 24.6177 17.8687 23.3708C18.0584 22.3956 17.9571 21.3861 17.5772 20.468C17.4851 20.2735 17.3208 20.1225 17.1193 20.047C16.9177 19.9716 16.6947 19.9775 16.4974 20.0636C16.3002 20.1498 16.1442 20.3093 16.0626 20.5085C15.981 20.7076 15.9801 20.9307 16.0601 21.1305C16.2854 21.702 16.357 22.3225 16.2677 22.9303C14.6671 24.8355 12.8879 26.5833 10.9544 28.1497C10.9031 28.1902 10.8429 28.2177 10.7787 28.23C10.7145 28.2423 10.6483 28.239 10.5856 28.2203C10.5196 28.2008 10.4592 28.166 10.4093 28.1185C10.3594 28.0711 10.3214 28.0126 10.2986 27.9476C10.1849 27.6215 10.0879 27.2899 10.0082 26.9539C9.98812 26.8692 9.95536 26.788 9.911 26.7132C9.46933 25.9402 9.21979 25.4445 8.90952 24.9001C8.77719 24.6696 8.60059 24.4675 8.38987 24.3055C8.17915 24.1435 7.93847 24.0247 7.68169 23.9561C7.48303 23.8951 7.28986 23.8175 7.10421 23.7242C7.14694 23.1992 7.23187 22.6786 7.35817 22.1673C7.5009 21.6552 7.57516 21.1265 7.579 20.595C7.39637 19.6987 7.12297 18.8234 6.76302 17.9825C6.46821 17.1698 6.09169 16.1275 5.63346 14.7992C5.58488 14.6568 5.55175 14.5132 5.51531 14.3697C7.04679 15.2066 9.41412 15.1812 11.8808 14.9582C14.511 14.723 18.2585 14.5298 20.426 15.56C20.5242 15.6067 20.6307 15.6335 20.7393 15.6391C20.8479 15.6446 20.9566 15.6287 21.0591 15.5923C21.1616 15.5558 21.2559 15.4995 21.3366 15.4267C21.4173 15.3538 21.4829 15.2657 21.5296 15.1674C21.5763 15.0692 21.6032 14.9627 21.6087 14.8541C21.6143 14.7455 21.5983 14.6368 21.5619 14.5343C21.5254 14.4319 21.4692 14.3376 21.3963 14.2568C21.3234 14.1761 21.2353 14.1105 21.1371 14.0638C19.1816 13.1352 16.2787 12.8989 11.7318 13.3086C6.1745 13.8055 5.57825 12.6538 5.46231 11.532C5.3 9.95633 7.29965 7.86835 8.0836 7.19591C8.2082 7.08961 8.29817 6.94849 8.34198 6.79068C8.52615 6.23839 8.82153 5.72968 9.20988 5.29594C9.59824 4.8622 10.0713 4.51262 10.6 4.26876C11.5157 3.86526 12.4987 3.63609 13.4984 3.59301C14.4203 4.92307 15.821 5.84497 17.4072 6.16572C21.5942 7.25774 22.2169 8.32658 22.3086 8.62801C22.4473 9.11946 22.4941 9.63229 22.4466 10.1407C21.9097 9.9006 21.3562 9.69949 20.7904 9.53895C19.4494 9.18048 18.0805 8.93632 16.6983 8.8091C15.6968 8.68212 14.522 8.53526 13.08 8.3056C11.968 8.15782 10.8903 7.81704 9.89554 7.2986C9.80129 7.24451 9.69731 7.20952 9.58954 7.19562C9.48176 7.18172 9.3723 7.18918 9.26742 7.21758C9.16253 7.24599 9.06426 7.29477 8.97822 7.36115C8.89218 7.42753 8.82006 7.5102 8.76598 7.60445C8.71189 7.6987 8.6769 7.80268 8.663 7.91046C8.6491 8.01823 8.65656 8.12769 8.68497 8.23258C8.71337 8.33747 8.76215 8.43574 8.82853 8.52177C8.89491 8.60781 8.97758 8.67993 9.07183 8.73401C10.2385 9.35672 11.5074 9.7651 12.8183 9.93976C14.2835 10.1738 15.4749 10.324 16.4918 10.4521C17.7816 10.5707 19.0593 10.7952 20.3122 11.1234C22.2523 11.712 23.0075 12.2453 23.0959 13.0955C23.1004 13.6085 22.9846 14.1155 22.7577 14.5757C22.5309 15.0359 22.1993 15.4366 21.7896 15.7455C21.6759 15.8276 21.5849 15.9373 21.5251 16.0642C21.4653 16.1911 21.4387 16.3311 21.4478 16.4711C21.4568 16.6111 21.5012 16.7465 21.5768 16.8646C21.6525 16.9828 21.7568 17.0798 21.8802 17.1467L23.7274 18.1404C23.8483 18.2053 23.9833 18.2395 24.1205 18.2398C24.1608 18.2396 24.201 18.2366 24.2409 18.231L26.5596 17.8887C26.6672 17.8728 26.7706 17.8359 26.864 17.78C26.9573 17.7242 27.0387 17.6505 27.1035 17.5632C27.1684 17.4759 27.2154 17.3767 27.2419 17.2712C27.2684 17.1657 27.2739 17.0561 27.258 16.9485C27.2421 16.8409 27.2052 16.7375 27.1494 16.6441C27.0935 16.5508 27.0199 16.4694 26.9326 16.4045C26.8452 16.3397 26.746 16.2927 26.6405 16.2662C26.5351 16.2397 26.4254 16.2342 26.3178 16.2501L24.2729 16.5515L23.6579 16.2203C24.0515 15.7709 24.3507 15.247 24.5375 14.6796C24.7244 14.1122 24.7951 13.513 24.7455 12.9177C24.6787 12.2769 24.4024 11.6761 23.9593 11.2085C24.1926 10.1964 24.1702 9.14227 23.8942 8.14108C23.4525 6.67916 21.465 5.50654 17.8212 4.55695C16.8218 4.34391 15.9082 3.83851 15.1966 3.10497C16.2566 2.64432 17.4256 2.49385 18.5677 2.67104C19.1413 2.71193 19.687 2.93425 20.1259 3.30584C20.5648 3.67744 20.8741 4.17902 21.009 4.73804C21.0662 4.94665 21.2027 5.12459 21.3895 5.23382C21.5762 5.34305 21.7982 5.37488 22.0081 5.32252C22.218 5.27016 22.399 5.13776 22.5125 4.95363C22.6261 4.7695 22.663 4.54826 22.6155 4.33722C22.4046 3.47607 21.9358 2.69982 21.2719 2.11223C20.6079 1.52464 19.7804 1.15371 18.9 1.04901C17.1459 0.779458 15.3518 1.0896 13.7899 1.93235C12.4651 1.93004 11.1547 2.20695 9.94412 2.74501C9.22944 3.06948 8.58635 3.53272 8.0522 4.10781C7.51804 4.6829 7.10348 5.3584 6.83258 6.09506C6.08285 6.77522 3.56535 9.25187 3.816 11.691C3.82262 11.7561 3.83808 11.8124 3.84802 11.8754C3.83112 11.9083 3.81708 11.9427 3.80606 11.9781C3.60455 13.0991 3.69505 14.2532 4.06885 15.3292C4.52929 16.6686 4.90912 17.7186 5.20725 18.5379C5.23706 18.6218 5.26246 18.6925 5.29227 18.7731C3.20208 20.15 0 22.5162 0 24.0333C0 26.4967 3.59627 29.1567 5.19731 30.2167C4.14504 33.0202 2.95365 36.9941 3.91206 38.6194C4.52819 39.6628 5.82669 40.0758 7.4995 40.0758C10.4885 40.0758 14.6689 38.7508 18.2574 37.3562C21.6969 36.0147 23.755 35.0375 25.1165 34.3948C26.8401 33.5756 27.2254 33.4077 27.846 33.5435C37.0669 35.5697 51.6253 34.4169 52.2381 34.3661C52.3464 34.3574 52.452 34.3273 52.5487 34.2778C52.6454 34.2282 52.7314 34.1601 52.8018 34.0773C52.8722 33.9945 52.9256 33.8987 52.9589 33.7952C52.9923 33.6918 53.0049 33.5828 52.9961 33.4745C52.9874 33.3662 52.9573 33.2607 52.9078 33.164C52.8582 33.0673 52.7901 32.9813 52.7073 32.9109C52.6245 32.8405 52.5287 32.7871 52.4252 32.7537C52.3218 32.7204 52.2128 32.7077 52.1045 32.7165V32.7143Z" />
    <path d="M25.8662 23.0296C26.004 23.2373 26.194 23.405 26.417 23.5161C26.6401 23.6271 26.8884 23.6776 27.1371 23.6623C27.3743 23.6592 27.6102 23.6265 27.8394 23.5652C29.3566 23.0605 30.7794 22.3071 32.0496 21.3359C32.1149 21.6314 32.2564 21.9046 32.46 22.1285C32.6637 22.3524 32.9223 22.5192 33.2104 22.6122C33.4984 22.7051 33.8057 22.7212 34.1018 22.6586C34.3979 22.5961 34.6725 22.4571 34.8983 22.2556C38.0772 19.3947 38.1633 19.0315 38.2329 18.7422C38.329 18.338 38.4195 17.8842 38.4957 17.4724L44.5686 17.6049H44.5874C44.807 17.6072 45.0186 17.5222 45.1756 17.3686C45.3325 17.2149 45.422 17.0052 45.4243 16.7856C45.4267 16.566 45.3417 16.3544 45.188 16.1974C45.0344 16.0405 44.8247 15.951 44.6051 15.9486L39.357 15.8382L52.7593 2.33758C52.8455 2.2628 52.9153 2.17101 52.9644 2.06797C53.0134 1.96493 53.0407 1.85287 53.0444 1.73881C53.048 1.62475 53.0281 1.51117 52.9858 1.40517C52.9435 1.29918 52.8798 1.20307 52.7986 1.12288C52.7174 1.04268 52.6205 0.98013 52.514 0.93915C52.4075 0.89817 52.2937 0.879644 52.1797 0.884736C52.0657 0.889827 51.954 0.918426 51.8516 0.968737C51.7491 1.01905 51.6582 1.08999 51.5845 1.1771L37.2966 15.5555C37.1739 15.6802 37.0932 15.84 37.0658 16.0127C37.0658 16.0259 36.8671 17.299 36.6451 18.2563C35.7544 19.2408 34.7998 20.1655 33.7875 21.0245L33.6771 20.9207L35.52 18.4761C35.6414 18.3135 35.6989 18.1121 35.6816 17.91C35.6643 17.7079 35.5735 17.5191 35.4263 17.3796C35.2791 17.24 35.0858 17.1593 34.883 17.1528C34.6803 17.1463 34.4822 17.2144 34.3264 17.3443L32.065 19.2424C30.6762 20.396 29.1078 21.3143 27.422 21.9608C27.3734 21.973 27.3304 21.9818 27.2928 21.9895C27.6436 20.8769 28.2253 19.8509 28.9999 18.9785C30.4203 17.5122 32.1398 16.3688 34.0415 15.6262C34.192 15.5692 34.3225 15.4694 34.4169 15.3391L43.6367 2.57166C43.7004 2.4835 43.7462 2.38365 43.7713 2.27781C43.7964 2.17197 43.8005 2.06222 43.7832 1.95482C43.7659 1.84742 43.7277 1.74447 43.6706 1.65186C43.6136 1.55924 43.5388 1.47877 43.4507 1.41505C43.3625 1.35132 43.2626 1.30558 43.1568 1.28044C43.051 1.2553 42.9412 1.25125 42.8338 1.26853C42.7264 1.28581 42.6235 1.32407 42.5308 1.38113C42.4382 1.43819 42.3578 1.51294 42.294 1.6011L33.2189 14.1753C31.1279 15.0067 29.2478 16.2924 27.7146 17.9394C27.0521 18.7698 24.9398 21.5909 25.8662 23.0296Z" />
    <path d="M51.6077 12.3745L44.6669 18.8294L42.9897 18.6373C41.8285 18.5045 40.6573 18.7801 39.6772 19.4168C34.9878 22.4842 34.7802 23.5188 34.9525 24.2465C35.0682 24.7457 35.3223 25.2022 35.6855 25.5637C36.0488 25.9251 36.5065 26.177 37.0062 26.2903C37.6045 26.3966 38.2118 26.4432 38.8193 26.4294C39.4983 26.4294 40.1796 26.393 40.6401 26.3576C43.0271 26.2916 45.3129 25.3785 47.0884 23.7816L52.5904 20.5862C52.6847 20.5315 52.7673 20.4588 52.8334 20.3722C52.8996 20.2856 52.948 20.1869 52.976 20.0816C53.004 19.9763 53.011 19.8665 52.9965 19.7585C52.9821 19.6505 52.9465 19.5464 52.8919 19.4522C52.8372 19.3579 52.7645 19.2754 52.6779 19.2092C52.5914 19.143 52.4926 19.0946 52.3873 19.0666C52.282 19.0386 52.1722 19.0316 52.0642 19.0461C51.9562 19.0605 51.8521 19.0961 51.7579 19.1507L46.1543 22.4102C46.0757 22.4571 46.0046 22.5155 45.9434 22.5836C45.8793 22.6587 44.3015 24.4044 40.5098 24.7058C39.4676 24.8104 38.4171 24.8001 37.3772 24.6749C37.201 24.6348 37.0377 24.5509 36.9025 24.4308C36.7674 24.3107 36.6648 24.1584 36.6043 23.9881C36.7501 23.7474 37.4468 22.8563 40.5859 20.8037C41.2428 20.3756 42.0289 20.1912 42.8075 20.2825L44.8624 20.5177C44.9822 20.5299 45.1031 20.5165 45.2174 20.4784C45.3316 20.4404 45.4364 20.3785 45.5249 20.2969L52.745 13.5824C52.9061 13.4328 53.0011 13.2253 53.0092 13.0056C53.0173 12.7859 52.9377 12.572 52.7881 12.4109C52.6384 12.2498 52.4309 12.1548 52.2112 12.1467C51.9915 12.1387 51.7776 12.2182 51.6166 12.3678L51.6077 12.3745Z" />
</svg>