<svg width="53" height="53" viewBox="0 0 53 53" xmlns="http://www.w3.org/2000/svg">
    <g clip-path="url(#clip0_872_5745)">
        <path d="M52.0588 45.4774L50.3209 43.1591L44.7893 30.9118C43.8849 28.9089 43.2728 26.7941 42.9676 24.6245C42.818 23.5602 42.7419 22.4754 42.7419 21.4018V15.5256C42.7419 14.5066 41.9127 13.6774 40.8938 13.6774C40.0971 13.6774 39.3918 14.1861 39.1405 14.9417L37.8865 18.703C37.3898 20.1922 36.7196 21.6078 35.899 22.9362L33.5396 18.1525C33.2139 17.502 32.5591 17.0968 31.8308 17.0968C30.7768 17.0968 29.9194 17.9542 29.9194 19.0082V23.1584C29.9194 24.6151 29.4919 26.0256 28.6841 27.2386C28.373 27.7045 28.2097 28.2464 28.2097 28.8055C28.2097 30.363 29.4757 31.629 31.0332 31.629C32.666 31.629 34.1534 32.5249 34.9167 33.967L40.2202 43.9832C39.891 43.8507 39.5654 43.7105 39.2456 43.5583L30.0527 39.2038C27.8549 38.1634 25.4084 37.6129 22.9755 37.6129C19.5091 37.6129 16.1872 38.678 13.3671 40.6929L13.0722 40.9032C11.1283 42.2906 8.31844 42.1547 6.51985 40.5792L0 34.874V53H48.2984C50.8903 53 53 50.8903 53 48.2984C53 47.2871 52.6658 46.2861 52.0588 45.4774ZM12.8226 51.2903H1.70968V38.6421L5.39489 41.8657C6.67031 42.9822 8.30647 43.5968 9.9999 43.5968C10.9855 43.5968 11.937 43.3762 12.8226 42.9839V51.2903ZM36.24 25.4802C37.6599 23.5884 38.7592 21.4898 39.5081 19.2441L40.7621 15.4828C40.7809 15.4256 40.8339 15.3871 40.8938 15.3871C40.9707 15.3871 41.0323 15.4487 41.0323 15.5256V21.4018C41.0323 22.5558 41.1143 23.7201 41.275 24.8621C41.6024 27.1933 42.2607 29.4654 43.2318 31.6145L45.6056 36.8718L41.7375 31.7145C40.51 30.0784 38.8593 28.8123 36.9615 28.0541C36.3187 27.7977 35.9032 27.1839 35.9032 26.4906C35.9032 26.129 36.0229 25.77 36.24 25.4802ZM48.2984 51.2903H29.0645V47.871H27.3548V51.2903H14.5323V41.97C17.0241 40.2415 19.9374 39.3226 22.9755 39.3226C24.4552 39.3226 25.9367 39.5671 27.3548 40.0056V46.1613H29.0645V40.645C29.1483 40.6826 29.2372 40.71 29.3201 40.7493L38.5139 45.1039C41.1554 46.3553 44.0951 47.0161 47.0161 47.0161V45.3065C45.5167 45.3065 44.0131 45.109 42.5539 44.7397L36.4272 33.1678C35.3681 31.164 33.3011 29.9194 31.0324 29.9194C30.4186 29.9194 29.9194 29.4201 29.9194 28.8055C29.9194 28.585 29.9835 28.3713 30.1066 28.1875C31.1025 26.6941 31.629 24.9545 31.629 23.1593V19.0091C31.629 18.821 31.9282 18.7509 32.0111 18.9193L34.6936 24.2808L34.8125 24.551C34.4167 25.1169 34.1935 25.799 34.1935 26.4906C34.1935 27.8866 35.0304 29.1227 36.3264 29.6424C37.9326 30.2844 39.3311 31.3563 40.3698 32.7403L50.6919 46.5032C51.0775 47.0179 51.2903 47.6547 51.2903 48.2984C51.2903 49.9482 49.9482 51.2903 48.2984 51.2903Z" />
        <path d="M23.0806 0.976226V0H21.371V0.854839H19.6613V0H17.9516V0.976226C16.7557 1.28653 15.8188 2.22344 15.5085 3.41935H0V5.12903H15.5085C15.8188 6.32495 16.7557 7.26185 17.9516 7.57216V8.54839H19.6613V7.69355H21.371V8.54839H23.0806V7.57216C24.5518 7.19005 25.6452 5.86334 25.6452 4.27419C25.6452 2.68505 24.5518 1.35834 23.0806 0.976226ZM17.9516 5.74537C17.443 5.4496 17.0968 4.90421 17.0968 4.27419C17.0968 3.64418 17.443 3.09879 17.9516 2.80216V5.74537ZM21.371 5.98387H19.6613V2.56452H21.371V5.98387ZM23.0806 5.74623V2.80216C23.5893 3.09879 23.9355 3.64418 23.9355 4.27419C23.9355 4.90421 23.5893 5.4496 23.0806 5.74623Z" />
        <path d="M25.1674 21.371C23.8245 19.91 23.0808 18.032 23.0808 16.0351V10.2581H21.3711V16.0351C21.3711 17.9636 21.9361 19.8049 22.9859 21.371H18.0466C19.0964 19.8049 19.6614 17.9636 19.6614 16.0351V10.2581H17.9517V16.0351C17.9517 18.032 17.208 19.91 15.8651 21.371H5.12915V23.9355C5.12915 30.063 10.1146 35.0484 16.2421 35.0484C22.3695 35.0484 27.355 30.063 27.355 23.9355V21.371H25.1674ZM16.2421 33.3387C12.4261 33.3387 9.14005 31.0494 7.66717 27.7763C8.17921 27.3839 9.58884 26.5 11.9679 26.5C13.3895 26.5 15.2564 27.0146 17.2328 27.5574C19.3639 28.1438 21.731 28.7884 24.1561 28.9927C22.4832 31.6017 19.5648 33.3387 16.2421 33.3387ZM25.6453 23.9355C25.6453 25.1348 25.4111 26.2777 24.9999 27.3335C22.4969 27.2266 19.9529 26.5333 17.6859 25.9102C15.5949 25.334 13.6203 24.7903 11.9679 24.7903C9.635 24.7903 8.00996 25.5255 7.09955 26.0957C6.93457 25.4007 6.83883 24.68 6.83883 23.9355V23.0806H25.6453V23.9355Z" />
    </g>
    <defs>
        <clipPath id="clip0_872_5745">
            <rect width="53" height="53" />
        </clipPath>
    </defs>
</svg>