<svg width="19" height="19" viewBox="0 0 19 19" xmlns="http://www.w3.org/2000/svg">
    <path d="M18.393 17.306L13.871 12.6028C15.0337 11.2207 15.6707 9.48166 15.6707 7.67124C15.6707 3.44139 12.2293 0 7.99949 0C3.76963 0 0.328247 3.44139 0.328247 7.67124C0.328247 11.9011 3.76963 15.3425 7.99949 15.3425C9.58744 15.3425 11.1007 14.8635 12.3944 13.9543L16.9508 18.6931C17.1413 18.8909 17.3974 19 17.6719 19C17.9317 19 18.1782 18.9009 18.3653 18.7208C18.7629 18.3383 18.7756 17.7039 18.393 17.306ZM7.99949 2.00119C11.126 2.00119 13.6695 4.54471 13.6695 7.67124C13.6695 10.7978 11.126 13.3413 7.99949 13.3413C4.87296 13.3413 2.32944 10.7978 2.32944 7.67124C2.32944 4.54471 4.87296 2.00119 7.99949 2.00119Z" />
</svg>